<svg xmlns="http://www.w3.org/2000/svg" viewBox="0 0 440.31 136.57"><g id="Layer_2" data-name="Layer 2"><g id="Layer_1-2" data-name="Layer 1"><polygon points="35.27 0 0 0 58.09 136.57 89.56 136.57 147.65 0 112.38 0 73.72 93.8 35.27 0"/><polygon points="183.95 108.97 160.61 108.97 160.61 136.57 239.03 136.57 239.03 108.97 215.69 108.97 215.69 27.6 239.03 27.6 239.03 0 160.61 0 160.61 27.6 183.95 27.6 183.95 108.97"/><path d="M278.2,0H259.09V27.39H277c26.32,0,44,16.44,44,40.9s-17.68,40.89-44,40.89H259.09v27.39H278.2c44.81,0,74.92-27.44,74.92-68.28S323,0,278.2,0Z"/><polygon points="440.31 27.6 440.31 0 361.89 0 361.89 27.6 385.23 27.6 385.23 108.97 361.89 108.97 361.89 136.57 440.31 136.57 440.31 108.97 416.97 108.97 416.97 27.6 440.31 27.6"/></g></g></svg>